<svg xmlns="http://www.w3.org/2000/svg" viewBox="0 0 1280 760">
  <defs>
    <linearGradient id="bg" x1="0%" y1="0%" x2="100%" y2="100%">
      <stop offset="0%" stop-color="#070b16"/>
      <stop offset="100%" stop-color="#111827"/>
    </linearGradient>
    <linearGradient id="card" x1="0%" y1="0%" x2="0%" y2="100%">
      <stop offset="0%" stop-color="#162033"/>
      <stop offset="100%" stop-color="#0d1424"/>
    </linearGradient>
    <linearGradient id="accent" x1="0%" y1="0%" x2="100%" y2="0%">
      <stop offset="0%" stop-color="#6366f1"/>
      <stop offset="100%" stop-color="#a855f7"/>
    </linearGradient>
  </defs>

  <rect width="1280" height="760" fill="url(#bg)"/>
  <rect x="28" y="24" width="1224" height="712" rx="24" fill="#050816" stroke="#1f2937" stroke-width="2"/>

  <text x="64" y="72" fill="#ffffff" font-size="34" font-weight="700">◊ AgentLens</text>
  <text x="64" y="100" fill="#94a3b8" font-size="16">AI developer analytics dashboard</text>

  <rect x="760" y="48" width="86" height="34" rx="17" fill="#1f2937"/>
  <text x="803" y="70" fill="#94a3b8" font-size="13" text-anchor="middle">Today</text>
  <rect x="858" y="48" width="92" height="34" rx="17" fill="#4f46e5"/>
  <text x="904" y="70" fill="#ffffff" font-size="13" text-anchor="middle">7 Days</text>
  <rect x="962" y="48" width="100" height="34" rx="17" fill="#1f2937"/>
  <text x="1012" y="70" fill="#94a3b8" font-size="13" text-anchor="middle">30 Days</text>
  <rect x="1074" y="48" width="110" height="34" rx="17" fill="#111827"/>
  <text x="1129" y="70" fill="#94a3b8" font-size="13" text-anchor="middle">All Providers</text>

  <rect x="56" y="132" width="220" height="116" rx="16" fill="url(#card)" stroke="#4338ca" stroke-width="1"/>
  <text x="80" y="162" fill="#94a3b8" font-size="12">Total Cost</text>
  <text x="80" y="206" fill="#10b981" font-size="34" font-weight="700">$148.92</text>
  <text x="80" y="228" fill="#64748b" font-size="12">USD</text>

  <rect x="292" y="132" width="220" height="116" rx="16" fill="url(#card)"/>
  <text x="316" y="162" fill="#94a3b8" font-size="12">Sessions</text>
  <text x="316" y="206" fill="#ffffff" font-size="34" font-weight="700">54</text>
  <text x="316" y="228" fill="#64748b" font-size="12">Avg $2.76 / session</text>

  <rect x="528" y="132" width="220" height="116" rx="16" fill="url(#card)"/>
  <text x="552" y="162" fill="#94a3b8" font-size="12">Total Tokens</text>
  <text x="552" y="206" fill="#ffffff" font-size="34" font-weight="700">18.7M</text>
  <text x="552" y="228" fill="#64748b" font-size="12">Processed</text>

  <rect x="764" y="132" width="220" height="116" rx="16" fill="url(#card)"/>
  <text x="788" y="162" fill="#94a3b8" font-size="12">Cache Efficiency</text>
  <text x="788" y="206" fill="#ffffff" font-size="34" font-weight="700">12.6%</text>
  <text x="788" y="228" fill="#64748b" font-size="12">Context hit rate</text>

  <rect x="1000" y="132" width="220" height="116" rx="16" fill="url(#card)"/>
  <text x="1024" y="162" fill="#94a3b8" font-size="12">Providers</text>
  <text x="1024" y="206" fill="#ffffff" font-size="34" font-weight="700">5</text>
  <text x="1024" y="228" fill="#64748b" font-size="12">Active</text>

  <rect x="56" y="272" width="760" height="96" rx="16" fill="#3b0d15" stroke="#ef4444" stroke-width="1.5"/>
  <text x="82" y="306" fill="#fca5a5" font-size="12" font-weight="700">HIGH</text>
  <text x="134" y="306" fill="#ffffff" font-size="18" font-weight="700">MCP server failures are spiking</text>
  <text x="82" y="334" fill="#fecaca" font-size="14">broken-mcp failed on 82% of calls across 6 sessions.</text>
  <text x="82" y="356" fill="#fecaca" font-size="14" font-weight="600">Disable or repair the failing MCP server before it burns more context on retries.</text>

  <rect x="836" y="272" width="384" height="96" rx="16" fill="url(#card)"/>
  <text x="860" y="304" fill="#ffffff" font-size="18" font-weight="700">Processing</text>
  <text x="860" y="330" fill="#94a3b8" font-size="14">Reparsed</text>
  <text x="1174" y="330" fill="#ffffff" font-size="14" text-anchor="end">4</text>
  <text x="860" y="352" fill="#94a3b8" font-size="14">Cached Reuse</text>
  <text x="1174" y="352" fill="#ffffff" font-size="14" text-anchor="end">39</text>

  <rect x="56" y="392" width="600" height="168" rx="16" fill="url(#card)"/>
  <text x="82" y="424" fill="#ffffff" font-size="18" font-weight="700">Recommendations</text>
  <rect x="82" y="442" width="548" height="40" rx="10" fill="#101827"/>
  <text x="98" y="466" fill="#ffffff" font-size="14">Stabilize or remove broken-mcp</text>
  <text x="98" y="484" fill="#94a3b8" font-size="12">Remove the server from the active tool set until the failure rate drops.</text>
  <rect x="82" y="498" width="548" height="40" rx="10" fill="#101827"/>
  <text x="98" y="522" fill="#ffffff" font-size="14">Increase cache-friendly session boundaries</text>
  <text x="98" y="540" fill="#94a3b8" font-size="12">End sessions earlier and carry forward a smaller summary.</text>

  <rect x="676" y="392" width="544" height="168" rx="16" fill="url(#card)"/>
  <text x="702" y="424" fill="#ffffff" font-size="18" font-weight="700">Top Savings Opportunities</text>
  <rect x="702" y="442" width="492" height="34" rx="10" fill="#101827"/>
  <text x="718" y="464" fill="#e5e7eb" font-size="13">3 active issues need attention</text>
  <rect x="702" y="486" width="492" height="24" rx="8" fill="#0f172a"/>
  <text x="718" y="503" fill="#94a3b8" font-size="12">Tool loop detected: Stop and reset the workflow before another loop compounds wasted tokens.</text>
  <rect x="702" y="518" width="492" height="24" rx="8" fill="#0f172a"/>
  <text x="718" y="535" fill="#94a3b8" font-size="12">Provider concentration is unusually high: compare a cheaper provider for exploratory loops.</text>

  <rect x="56" y="584" width="600" height="120" rx="16" fill="url(#card)"/>
  <text x="82" y="616" fill="#ffffff" font-size="18" font-weight="700">Tool Efficiency</text>
  <text x="82" y="646" fill="#e5e7eb" font-size="14">Bash</text>
  <text x="616" y="646" fill="#94a3b8" font-size="14" text-anchor="end">$21.42 · 18% err</text>
  <text x="82" y="674" fill="#e5e7eb" font-size="14">Read</text>
  <text x="616" y="674" fill="#94a3b8" font-size="14" text-anchor="end">$14.38 · 0% err</text>

  <rect x="676" y="584" width="544" height="120" rx="16" fill="url(#card)"/>
  <text x="702" y="616" fill="#ffffff" font-size="18" font-weight="700">MCP Health</text>
  <text x="702" y="646" fill="#e5e7eb" font-size="14">broken-mcp</text>
  <text x="1188" y="646" fill="#94a3b8" font-size="14" text-anchor="end">82% · 11 calls</text>
  <text x="702" y="674" fill="#e5e7eb" font-size="14">docs-index</text>
  <text x="1188" y="674" fill="#94a3b8" font-size="14" text-anchor="end">5% · 7 calls</text>
</svg>
